<svg width="45" height="45" viewBox="0 0 45 45" fill="none" xmlns="http://www.w3.org/2000/svg">
<path d="M45 22.5C45 34.9264 34.9264 45 22.5 45C10.0736 45 0 34.9264 0 22.5C0 10.0736 10.0736 0 22.5 0C34.9264 0 45 10.0736 45 22.5Z" fill="#DBE1FF"/>
<path fill-rule="evenodd" clip-rule="evenodd" d="M22.5 18.9106C23.887 17.485 27.3545 19.9798 22.5 23.1875C17.6455 19.9798 21.113 17.485 22.5 18.9106Z" fill="#808CD7"/>
<path d="M16.5 16.5C16.5 15.3954 17.3954 14.5 18.5 14.5H26.5C27.6046 14.5 28.5 15.3954 28.5 16.5V30C28.5 30.1844 28.3985 30.3538 28.2359 30.4408C28.0733 30.5278 27.8761 30.5183 27.7226 30.416L22.5 27.6009L17.2773 30.416C17.1239 30.5183 16.9266 30.5278 16.7641 30.4408C16.6015 30.3538 16.5 30.1844 16.5 30V16.5ZM18.5 15.5C17.9477 15.5 17.5 15.9477 17.5 16.5V29.0657L22.2227 26.584C22.3906 26.472 22.6094 26.472 22.7773 26.584L27.5 29.0657V16.5C27.5 15.9477 27.0523 15.5 26.5 15.5H18.5Z" fill="#808CD7"/>
</svg>
