<svg width="45" height="45" viewBox="0 0 45 45" fill="none" xmlns="http://www.w3.org/2000/svg">
<path d="M45 22.5C45 34.9264 34.9264 45 22.5 45C10.0736 45 0 34.9264 0 22.5C0 10.0736 10.0736 0 22.5 0C34.9264 0 45 10.0736 45 22.5Z" fill="#DDF7EC"/>
<path fill-rule="evenodd" clip-rule="evenodd" d="M15 20.5C14.8483 20.5 14.7049 20.5689 14.61 20.6872C14.5151 20.8055 14.479 20.9604 14.5119 21.1085L16.1639 28.5424C16.4181 29.6862 17.4326 30.5 18.6043 30.5H24.3957C25.5674 30.5 26.5819 29.6862 26.8361 28.5424L26.9671 27.9528C27.1403 27.9838 27.3184 28 27.5 28C29.1569 28 30.5 26.6569 30.5 25C30.5 23.6086 29.5529 22.4386 28.2679 22.0993L28.4881 21.1085C28.521 20.9604 28.4849 20.8055 28.39 20.6872C28.2951 20.5689 28.1517 20.5 28 20.5H15ZM27.5 27C27.3924 27 27.287 26.9916 27.1844 26.9753L28.0507 23.0767C28.8873 23.3158 29.5 24.0865 29.5 25C29.5 26.1046 28.6046 27 27.5 27ZM17.1401 28.3254L15.6233 21.5H27.3767L25.8599 28.3254C25.7074 29.0117 25.0987 29.5 24.3957 29.5H18.6043C17.9013 29.5 17.2926 29.0117 17.1401 28.3254Z" fill="#2BBEB8"/>
<path d="M18.9001 15.2999L18.8967 15.3044L18.8835 15.3226C18.8716 15.3389 18.8542 15.3634 18.833 15.394C18.7903 15.4557 18.7341 15.54 18.6787 15.6323C18.6225 15.7261 18.5723 15.8193 18.5377 15.9001C18.5123 15.9593 18.504 15.9921 18.5013 16.0027C18.5006 16.0053 18.5001 16.0066 18.5001 16.0066C18.5018 16.0515 18.5211 16.1287 18.592 16.2549C18.6667 16.3876 18.7704 16.5272 18.9 16.7L18.9092 16.7122C19.0278 16.8703 19.1695 17.0593 19.2795 17.2549C19.3924 17.4556 19.5 17.7104 19.5 18C19.5 18.1877 19.4352 18.3683 19.3814 18.4938C19.3223 18.6318 19.2475 18.7677 19.1787 18.8823C19.1091 18.9983 19.0403 19.1015 18.9892 19.1752C18.9635 19.2123 18.9419 19.2426 18.9265 19.264L18.908 19.2893L18.9026 19.2965L18.9009 19.2988L18.9002 19.2998C18.7345 19.5207 18.4209 19.5657 18.2 19.4C17.9792 19.2344 17.9344 18.9212 18.0998 18.7003L18.1033 18.6956L18.1165 18.6775C18.1284 18.6611 18.1458 18.6366 18.167 18.606C18.2097 18.5443 18.2659 18.46 18.3213 18.3678C18.3775 18.274 18.4277 18.1807 18.4623 18.0999C18.4877 18.0407 18.496 18.008 18.4987 17.9973C18.4994 17.9948 18.4999 17.9934 18.4999 17.9934C18.4982 17.9485 18.4789 17.8713 18.408 17.7451C18.3333 17.6124 18.2296 17.4728 18.1 17.3L18.0908 17.2878C17.9722 17.1297 17.8305 16.9407 17.7205 16.7451C17.6076 16.5444 17.5 16.2896 17.5 16C17.5 15.8123 17.5648 15.6317 17.6186 15.5062C17.6777 15.3682 17.7525 15.2323 17.8213 15.1178C17.8909 15.0017 17.9597 14.8985 18.0108 14.8248C18.0365 14.7877 18.0581 14.7574 18.0735 14.7361L18.0991 14.7013L18.0998 14.7002C18.2655 14.4793 18.5791 14.4343 18.8 14.6C19.0208 14.7656 19.0655 15.079 18.9001 15.2999Z" fill="#2BBEB8"/>
<path d="M21.9001 15.2999L21.8967 15.3044L21.8835 15.3226C21.8716 15.3389 21.8542 15.3634 21.833 15.394C21.7903 15.4557 21.7341 15.54 21.6787 15.6323C21.6225 15.7261 21.5723 15.8193 21.5377 15.9001C21.5123 15.9593 21.504 15.9921 21.5013 16.0027C21.5006 16.0053 21.5001 16.0066 21.5001 16.0066C21.5018 16.0515 21.5211 16.1287 21.592 16.2549C21.6667 16.3876 21.7704 16.5272 21.9 16.7L21.9092 16.7122C22.0278 16.8703 22.1695 17.0593 22.2795 17.2549C22.3924 17.4556 22.5 17.7104 22.5 18C22.5 18.1877 22.4352 18.3683 22.3814 18.4938C22.3223 18.6318 22.2475 18.7677 22.1787 18.8823C22.1091 18.9983 22.0403 19.1015 21.9892 19.1752C21.9635 19.2123 21.9419 19.2426 21.9265 19.264L21.908 19.2893L21.9026 19.2965L21.9009 19.2988L21.9002 19.2998C21.7345 19.5207 21.4209 19.5657 21.2 19.4C20.9792 19.2344 20.9344 18.9212 21.0998 18.7003L21.1033 18.6956L21.1165 18.6775C21.1284 18.6611 21.1458 18.6366 21.167 18.606C21.2097 18.5443 21.2659 18.46 21.3213 18.3678C21.3775 18.274 21.4277 18.1807 21.4623 18.0999C21.4877 18.0407 21.496 18.008 21.4987 17.9973C21.4994 17.9948 21.4999 17.9934 21.4999 17.9934C21.4982 17.9485 21.4789 17.8713 21.408 17.7451C21.3333 17.6124 21.2296 17.4728 21.1 17.3L21.0908 17.2878C20.9722 17.1297 20.8305 16.9407 20.7205 16.7451C20.6076 16.5444 20.5 16.2896 20.5 16C20.5 15.8123 20.5648 15.6317 20.6186 15.5062C20.6777 15.3682 20.7525 15.2323 20.8213 15.1178C20.8909 15.0017 20.9597 14.8985 21.0108 14.8248C21.0365 14.7877 21.0581 14.7574 21.0735 14.7361L21.0991 14.7013L21.0998 14.7002C21.2655 14.4793 21.5791 14.4343 21.8 14.6C22.0208 14.7656 22.0655 15.079 21.9001 15.2999Z" fill="#2BBEB8"/>
<path d="M24.9001 15.2999L24.8967 15.3044L24.8835 15.3226C24.8716 15.3389 24.8542 15.3634 24.833 15.394C24.7903 15.4557 24.7341 15.54 24.6787 15.6323C24.6225 15.7261 24.5723 15.8193 24.5377 15.9001C24.5123 15.9593 24.504 15.9921 24.5013 16.0027C24.5006 16.0053 24.5001 16.0066 24.5001 16.0066C24.5018 16.0515 24.5211 16.1287 24.592 16.2549C24.6667 16.3876 24.7704 16.5272 24.9 16.7L24.9092 16.7122C25.0278 16.8703 25.1695 17.0593 25.2795 17.2549C25.3924 17.4556 25.5 17.7104 25.5 18C25.5 18.1877 25.4352 18.3683 25.3814 18.4938C25.3223 18.6318 25.2475 18.7677 25.1787 18.8823C25.1091 18.9983 25.0403 19.1015 24.9892 19.1752C24.9635 19.2123 24.9419 19.2426 24.9265 19.264L24.908 19.2893L24.9026 19.2965L24.9009 19.2988L24.9002 19.2998C24.7345 19.5207 24.4209 19.5657 24.2 19.4C23.9792 19.2344 23.9344 18.9212 24.0998 18.7003L24.1033 18.6956L24.1165 18.6775C24.1284 18.6611 24.1458 18.6366 24.167 18.606C24.2097 18.5443 24.2659 18.46 24.3213 18.3678C24.3775 18.274 24.4277 18.1807 24.4623 18.0999C24.4877 18.0407 24.496 18.008 24.4987 17.9973C24.4994 17.9948 24.4999 17.9934 24.4999 17.9934C24.4982 17.9485 24.4789 17.8713 24.408 17.7451C24.3333 17.6124 24.2296 17.4728 24.1 17.3L24.0908 17.2878C23.9722 17.1297 23.8305 16.9407 23.7205 16.7451C23.6076 16.5444 23.5 16.2896 23.5 16C23.5 15.8123 23.5648 15.6317 23.6186 15.5062C23.6777 15.3682 23.7525 15.2323 23.8213 15.1178C23.8909 15.0017 23.9597 14.8985 24.0108 14.8248C24.0365 14.7877 24.0581 14.7574 24.0735 14.7361L24.0991 14.7013L24.0998 14.7002C24.2655 14.4793 24.5791 14.4343 24.8 14.6C25.0208 14.7656 25.0655 15.079 24.9001 15.2999Z" fill="#2BBEB8"/>
</svg>
