<svg width="45" height="45" viewBox="0 0 45 45" fill="none" xmlns="http://www.w3.org/2000/svg">
<path d="M45 22.5C45 34.9264 34.9264 45 22.5 45C10.0736 45 0 34.9264 0 22.5C0 10.0736 10.0736 0 22.5 0C34.9264 0 45 10.0736 45 22.5Z" fill="#FFD6F6"/>
<path d="M15 24.4C15.2761 24.4 15.5 24.6239 15.5 24.9V27.4C15.5 27.9523 15.9477 28.4 16.5 28.4H28.5C29.0523 28.4 29.5 27.9523 29.5 27.4V24.9C29.5 24.6239 29.7239 24.4 30 24.4C30.2761 24.4 30.5 24.6239 30.5 24.9V27.4C30.5 28.5046 29.6046 29.4 28.5 29.4H16.5C15.3954 29.4 14.5 28.5046 14.5 27.4V24.9C14.5 24.6239 14.7239 24.4 15 24.4Z" fill="#FC47BE"/>
<path d="M22.1464 26.3536C22.3417 26.5488 22.6583 26.5488 22.8536 26.3536L25.8536 23.3536C26.0488 23.1583 26.0488 22.8417 25.8536 22.6464C25.6583 22.4512 25.3417 22.4512 25.1464 22.6464L23 24.7929V16C23 15.7239 22.7761 15.5 22.5 15.5C22.2239 15.5 22 15.7239 22 16V24.7929L19.8536 22.6464C19.6583 22.4512 19.3417 22.4512 19.1464 22.6464C18.9512 22.8417 18.9512 23.1583 19.1464 23.3536L22.1464 26.3536Z" fill="#FC47BE"/>
</svg>
