<svg width="45" height="45" viewBox="0 0 45 45" fill="none" xmlns="http://www.w3.org/2000/svg">
<path d="M45 22.5C45 34.9264 34.9264 45 22.5 45C10.0736 45 0 34.9264 0 22.5C0 10.0736 10.0736 0 22.5 0C34.9264 0 45 10.0736 45 22.5Z" fill="#DBE1FF"/>
<path d="M28.5 15.5C29.0523 15.5 29.5 15.9477 29.5 16.5V24.5C29.5 25.0523 29.0523 25.5 28.5 25.5H18.9142C18.3838 25.5 17.8751 25.7107 17.5 26.0858L15.5 28.0858V16.5C15.5 15.9477 15.9477 15.5 16.5 15.5H28.5ZM16.5 14.5C15.3954 14.5 14.5 15.3954 14.5 16.5V29.2929C14.5 29.7383 15.0386 29.9614 15.3536 29.6464L18.2071 26.7929C18.3946 26.6054 18.649 26.5 18.9142 26.5H28.5C29.6046 26.5 30.5 25.6046 30.5 24.5V16.5C30.5 15.3954 29.6046 14.5 28.5 14.5H16.5Z" fill="#808CD7"/>
<path d="M17.5 18C17.5 17.7239 17.7239 17.5 18 17.5H27C27.2761 17.5 27.5 17.7239 27.5 18C27.5 18.2761 27.2761 18.5 27 18.5H18C17.7239 18.5 17.5 18.2761 17.5 18ZM17.5 20.5C17.5 20.2239 17.7239 20 18 20H27C27.2761 20 27.5 20.2239 27.5 20.5C27.5 20.7761 27.2761 21 27 21H18C17.7239 21 17.5 20.7761 17.5 20.5ZM17.5 23C17.5 22.7239 17.7239 22.5 18 22.5H23C23.2761 22.5 23.5 22.7239 23.5 23C23.5 23.2761 23.2761 23.5 23 23.5H18C17.7239 23.5 17.5 23.2761 17.5 23Z" fill="#808CD7"/>
</svg>
