<svg width="45" height="45" viewBox="0 0 45 45" fill="none" xmlns="http://www.w3.org/2000/svg">
<path d="M45 22.5C45 34.9264 34.9264 45 22.5 45C10.0736 45 0 34.9264 0 22.5C0 10.0736 10.0736 0 22.5 0C34.9264 0 45 10.0736 45 22.5Z" fill="#FFD6F6"/>
<path d="M30.3536 14.6464C30.495 14.7879 30.5385 15 30.4642 15.1857L24.6454 29.7328C24.4184 30.3003 23.6444 30.3725 23.3163 29.8569L20.1378 24.8622L15.1431 21.6837C14.6275 21.3556 14.6997 20.5816 15.2672 20.3546L29.8143 14.5358C30 14.4615 30.2121 14.505 30.3536 14.6464ZM21.1372 24.5699L23.8981 28.9085L28.6311 17.076L21.1372 24.5699ZM27.924 16.3689L16.0915 21.1019L20.4301 23.8628L27.924 16.3689Z" fill="#FC47BE"/>
</svg>
