<svg width="8" height="9" viewBox="0 0 8 9" fill="none" xmlns="http://www.w3.org/2000/svg">
<path d="M0.167368 0.667368C0.390524 0.444211 0.752333 0.444211 0.97549 0.667368L4 3.69188L7.02451 0.667368C7.24767 0.444211 7.60948 0.444211 7.83263 0.667368C8.05579 0.890524 8.05579 1.25233 7.83263 1.47549L4.80812 4.5L7.83263 7.52451C8.05579 7.74767 8.05579 8.10948 7.83263 8.33263C7.60948 8.55579 7.24767 8.55579 7.02451 8.33263L4 5.30812L0.97549 8.33263C0.752333 8.55579 0.390524 8.55579 0.167368 8.33263C-0.0557892 8.10948 -0.0557892 7.74767 0.167368 7.52451L3.19188 4.5L0.167368 1.47549C-0.0557892 1.25233 -0.0557892 0.890524 0.167368 0.667368Z" fill="#6F7979"/>
</svg>
